<svg width="512" height="512" viewBox="0 0 512 512" xmlns="http://www.w3.org/2000/svg">
<defs>
<clipPath id="circle-clip"><circle cx="256" cy="256" r="230"/></clipPath>
</defs>
<circle cx="256" cy="256" r="230" fill="#1e3a5f"/>
<g clip-path="url(#circle-clip)">
<path d="M160 190 L310 150 L310 340 L160 300 Z" fill="#f97316" stroke="none"/>
<rect x="120" y="190" width="40" height="110" rx="8" fill="#fb923c"/>
<circle cx="310" cy="245" r="12" fill="#1e3a5f"/>
<path d="M310 170 Q360 160 370 140" stroke="#fbbf24" stroke-width="8" fill="none" stroke-linecap="round"/>
<path d="M310 200 Q370 190 390 175" stroke="#fbbf24" stroke-width="6" fill="none" stroke-linecap="round"/>
<path d="M310 290 Q370 300 390 315" stroke="#fbbf24" stroke-width="6" fill="none" stroke-linecap="round"/>
<path d="M310 320 Q360 330 370 350" stroke="#fbbf24" stroke-width="8" fill="none" stroke-linecap="round"/>
<line x1="350" y1="230" x2="400" y2="230" stroke="#fbbf24" stroke-width="7" stroke-linecap="round"/>
<line x1="350" y1="250" x2="410" y2="250" stroke="#fbbf24" stroke-width="7" stroke-linecap="round"/>
<line x1="350" y1="270" x2="395" y2="270" stroke="#fbbf24" stroke-width="6" stroke-linecap="round"/>
</g>
</svg>
